<?xml version="1.0" encoding="utf-8"?>
<!-- Generator: Adobe Illustrator 25.0.0, SVG Export Plug-In . SVG Version: 6.00 Build 0)  -->
<svg version="1.1" id="Layer_1" xmlns="http://www.w3.org/2000/svg" xmlns:xlink="http://www.w3.org/1999/xlink" x="0px" y="0px"
	 viewBox="0 0 12.9 6.2" style="enable-background:new 0 0 12.9 6.2;" xml:space="preserve">
<style type="text/css">
	.st0{fill:#B43ABE;}
</style>
<g id="Layer_2_1_">
	<g id="Layer_1-2">
		<rect x="3.1" y="1.8" class="st0" width="1.8" height="0.4"/>
		<rect x="4.9" y="2.2" class="st0" width="0.4" height="0.5"/>
		<rect x="2.7" y="3.6" class="st0" width="0.5" height="0.4"/>
		<rect x="0.4" y="3.1" class="st0" width="0.4" height="0.5"/>
		<rect x="0.4" y="4.4" class="st0" width="0.4" height="0.4"/>
		<rect x="0.9" y="4.9" class="st0" width="6.7" height="0.4"/>
		<rect y="3.6" class="st0" width="0.4" height="0.9"/>
		<polygon class="st0" points="2.2,3.6 2.7,3.6 2.7,2.7 0.9,2.7 0.9,3.1 2.2,3.1 		"/>
		<rect x="2.7" y="2.2" class="st0" width="0.5" height="0.5"/>
		<rect x="4.9" y="3.6" class="st0" width="0.4" height="0.4"/>
		<rect x="5.3" y="2.7" class="st0" width="0.4" height="0.4"/>
		<rect x="8.4" y="0.9" class="st0" width="0.4" height="0.4"/>
		<rect x="10.7" y="0.9" class="st0" width="0.4" height="0.9"/>
		<rect x="9.3" class="st0" width="0.9" height="0.4"/>
		<rect x="10.7" y="2.7" class="st0" width="0.9" height="0.4"/>
		<rect x="11.6" y="3.1" class="st0" width="0.9" height="0.5"/>
		<rect x="10.2" y="0.4" class="st0" width="0.4" height="0.4"/>
		<rect x="8.9" y="0.4" class="st0" width="0.4" height="0.4"/>
		<polygon class="st0" points="10.2,2.2 10.7,2.2 10.7,1.8 10.2,1.8 10.2,2.2 6.2,2.2 6.2,2.7 10.2,2.7 		"/>
		<polygon class="st0" points="10.7,4.4 10.7,4 5.3,4 5.3,4.4 10.7,4.4 10.7,4.9 11.1,4.9 11.1,4.4 		"/>
		<rect x="11.1" y="4.9" class="st0" width="0.4" height="0.9"/>
		<rect x="10.7" y="5.8" class="st0" width="0.4" height="0.4"/>
		<rect x="12.5" y="2.7" class="st0" width="0.4" height="0.4"/>
		<rect x="5.8" y="3.1" class="st0" width="4.9" height="0.5"/>
	</g>
</g>
</svg>
