<svg xmlns="http://www.w3.org/2000/svg" viewBox="0 0 12.9 6.23"><defs><style>.cls-1{fill:#8ad0e4;}</style></defs><g id="Layer_2" data-name="Layer 2"><g id="Layer_1-2" data-name="Layer 1"><rect class="cls-1" x="3.11" y="0.89" width="1.78" height="0.45"/><rect class="cls-1" x="4.89" y="1.33" width="0.44" height="0.44"/><rect class="cls-1" x="2.67" y="2.67" width="0.45" height="0.45"/><rect class="cls-1" x="0.44" y="2.22" width="0.45" height="0.44"/><rect class="cls-1" x="0.44" y="3.56" width="0.45" height="0.44"/><rect class="cls-1" y="2.67" width="0.44" height="0.89"/><polygon class="cls-1" points="2.22 2.67 2.67 2.67 2.67 1.78 0.89 1.78 0.89 2.23 2.22 2.23 2.22 2.67"/><rect class="cls-1" x="2.67" y="1.33" width="0.45" height="0.44"/><rect class="cls-1" x="4.89" y="2.67" width="0.44" height="0.45"/><rect class="cls-1" x="5.34" y="1.78" width="0.44" height="0.89"/><rect class="cls-1" x="8.45" y="0.89" width="0.45" height="0.45"/><rect class="cls-1" x="10.67" y="0.89" width="0.45" height="0.89"/><rect class="cls-1" x="9.34" width="0.89" height="0.44"/><rect class="cls-1" x="10.67" y="2.67" width="0.89" height="0.45"/><rect class="cls-1" x="11.56" y="3.11" width="0.89" height="0.45"/><rect class="cls-1" x="10.23" y="0.44" width="0.45" height="0.45"/><rect class="cls-1" x="8.89" y="0.44" width="0.44" height="0.45"/><polygon class="cls-1" points="10.23 2.23 10.67 2.23 10.67 1.78 10.23 1.78 10.23 2.23 6.23 2.23 6.23 2.67 10.23 2.67 10.23 2.23"/><polygon class="cls-1" points="10.67 4.45 10.67 4 0.89 4 0.89 4.45 10.67 4.45 10.67 4.89 11.12 4.89 11.12 4.45 10.67 4.45"/><rect class="cls-1" x="11.12" y="4.89" width="0.44" height="0.89"/><rect class="cls-1" x="10.67" y="5.78" width="0.45" height="0.45"/><rect class="cls-1" x="12.45" y="2.67" width="0.44" height="0.45"/><rect class="cls-1" x="5.78" y="3.11" width="4.89" height="0.45"/></g></g></svg>