<svg xmlns="http://www.w3.org/2000/svg" viewBox="0 0 5.78 5.78"><defs><style>.cls-1{fill:#c0c0bf;}</style></defs><g id="Layer_2" data-name="Layer 2"><g id="Layer_1-2" data-name="Layer 1"><rect class="cls-1" x="2.67" width="0.44" height="0.89"/><rect class="cls-1" x="2.67" y="4.89" width="0.44" height="0.89"/><rect class="cls-1" x="4.89" y="2.67" width="0.89" height="0.45"/><rect class="cls-1" y="2.67" width="0.89" height="0.45"/><rect class="cls-1" x="1.33" y="2.22" width="0.44" height="1.33"/><rect class="cls-1" x="2.22" y="1.33" width="1.33" height="0.45"/><rect class="cls-1" x="1.78" y="1.78" width="0.45" height="0.45"/><rect class="cls-1" x="3.56" y="1.78" width="0.44" height="0.45"/><rect class="cls-1" x="4" y="2.22" width="0.45" height="1.33"/><rect class="cls-1" x="2.22" y="4" width="1.33" height="0.44"/><rect class="cls-1" x="3.56" y="3.56" width="0.44" height="0.45"/><rect class="cls-1" x="4.45" y="0.89" width="0.45" height="0.45"/><rect class="cls-1" x="4.89" y="0.45" width="0.44" height="0.44"/><rect class="cls-1" x="0.44" y="4.89" width="0.45" height="0.45"/><rect class="cls-1" x="0.89" y="4.45" width="0.45" height="0.45"/><rect class="cls-1" x="4.45" y="4.45" width="0.45" height="0.45"/><rect class="cls-1" x="4.89" y="4.89" width="0.44" height="0.45"/><rect class="cls-1" x="0.44" y="0.45" width="0.45" height="0.44"/><rect class="cls-1" x="0.89" y="0.89" width="0.45" height="0.45"/><rect class="cls-1" x="1.78" y="3.56" width="0.45" height="0.45"/></g></g></svg>