<svg xmlns="http://www.w3.org/2000/svg" viewBox="0 0 5.34 6.67"><defs><style>.cls-1{fill:#c0c0bf;}</style></defs><g id="Layer_2" data-name="Layer 2"><g id="Layer_1-2" data-name="Layer 1"><rect class="cls-1" x="4.89" y="0.89" width="0.45" height="0.44"/><rect class="cls-1" x="4.45" y="5.78" width="0.45" height="0.44"/><rect class="cls-1" x="4.89" y="5.34" width="0.45" height="0.45"/><rect class="cls-1" x="1.78" y="2.22" width="0.44" height="2.22"/><polygon class="cls-1" points="4.45 5.78 4.45 5.34 3.56 5.34 3.56 4.89 2.67 4.89 2.67 4.45 2.22 4.45 2.22 4.89 2.67 4.89 2.67 5.34 3.56 5.34 3.56 5.78 4.45 5.78"/><polygon class="cls-1" points="4.45 0.89 3.56 0.89 3.56 1.33 2.67 1.33 2.67 1.77 2.22 1.77 2.22 2.22 2.67 2.22 2.67 1.77 3.56 1.77 3.56 1.33 4.45 1.33 4.45 0.89"/><polygon class="cls-1" points="2.22 0.45 4.45 0.45 4.45 0.89 4.89 0.89 4.89 0.45 4.45 0.45 4.45 0 2.22 0 2.22 0.45 1.34 0.45 1.34 0.89 2.22 0.89 2.22 0.45"/><rect class="cls-1" x="0.89" y="5.34" width="0.45" height="0.45"/><rect class="cls-1" x="1.34" y="5.78" width="0.89" height="0.44"/><rect class="cls-1" x="0.45" y="4.45" width="0.45" height="0.89"/><rect class="cls-1" x="0.89" y="0.89" width="0.45" height="0.44"/><rect class="cls-1" x="0.45" y="1.33" width="0.45" height="0.89"/><rect class="cls-1" y="2.22" width="0.45" height="2.22"/><rect class="cls-1" x="2.22" y="6.23" width="2.22" height="0.45"/></g></g></svg>