<?xml version="1.0" encoding="utf-8"?>
<!-- Generator: Adobe Illustrator 25.0.0, SVG Export Plug-In . SVG Version: 6.00 Build 0)  -->
<svg version="1.1" id="Layer_1" xmlns="http://www.w3.org/2000/svg" xmlns:xlink="http://www.w3.org/1999/xlink" x="0px" y="0px"
	 viewBox="0 0 5.8 5.8" style="enable-background:new 0 0 5.8 5.8;" xml:space="preserve">
<style type="text/css">
	.st0{fill:#C944BE;}
</style>
<g id="Layer_2_1_">
	<g id="Layer_1-2">
		<rect x="2.7" class="st0" width="0.4" height="0.9"/>
		<rect x="2.7" y="4.9" class="st0" width="0.4" height="0.9"/>
		<rect x="4.9" y="2.7" class="st0" width="0.9" height="0.5"/>
		<rect y="2.7" class="st0" width="0.9" height="0.5"/>
		<rect x="1.3" y="2.2" class="st0" width="0.4" height="1.3"/>
		<rect x="2.2" y="1.3" class="st0" width="1.3" height="0.4"/>
		<rect x="1.8" y="1.8" class="st0" width="0.5" height="0.5"/>
		<rect x="3.6" y="1.8" class="st0" width="0.4" height="0.5"/>
		<rect x="4" y="2.2" class="st0" width="0.4" height="1.3"/>
		<rect x="2.2" y="4" class="st0" width="1.3" height="0.4"/>
		<rect x="3.6" y="3.6" class="st0" width="0.4" height="0.4"/>
		<rect x="4.4" y="0.9" class="st0" width="0.4" height="0.4"/>
		<rect x="4.9" y="0.4" class="st0" width="0.4" height="0.4"/>
		<rect x="0.4" y="4.9" class="st0" width="0.4" height="0.4"/>
		<rect x="0.9" y="4.4" class="st0" width="0.4" height="0.4"/>
		<rect x="4.4" y="4.4" class="st0" width="0.4" height="0.4"/>
		<rect x="4.9" y="4.9" class="st0" width="0.4" height="0.4"/>
		<rect x="0.4" y="0.4" class="st0" width="0.4" height="0.4"/>
		<rect x="0.9" y="0.9" class="st0" width="0.4" height="0.4"/>
		<rect x="1.8" y="3.6" class="st0" width="0.5" height="0.4"/>
	</g>
</g>
</svg>
