<svg xmlns="http://www.w3.org/2000/svg" viewBox="0 0 8.01 7.12"><defs><style>.cls-1{fill:#8ad0e4;}</style></defs><g id="Layer_2" data-name="Layer 2"><g id="Layer_1-2" data-name="Layer 1"><polygon class="cls-1" points="4.01 3.56 4.01 2.22 3.56 2.22 3.56 3.56 3.12 3.56 3.12 4 4.89 4 4.89 3.56 4.01 3.56"/><rect class="cls-1" x="4.89" y="4" width="0.45" height="0.45"/><rect class="cls-1" x="2.67" y="5.34" width="0.45" height="0.45"/><rect class="cls-1" x="0.45" y="4.89" width="0.45" height="0.44"/><rect class="cls-1" x="0.45" y="6.23" width="0.45" height="0.44"/><rect class="cls-1" x="0.89" y="6.67" width="6.67" height="0.45"/><rect class="cls-1" y="5.34" width="0.45" height="0.89"/><rect class="cls-1" x="2.67" y="4" width="0.45" height="0.45"/><polygon class="cls-1" points="7.12 5.34 7.12 4.89 5.78 4.89 5.78 4.45 5.34 4.45 5.34 5.34 7.12 5.34 7.12 5.78 7.56 5.78 7.56 5.34 7.12 5.34"/><rect class="cls-1" x="7.56" y="5.78" width="0.44" height="0.89"/><rect class="cls-1" x="4.89" y="5.34" width="0.45" height="0.45"/><rect class="cls-1" x="6.67" y="0.89" width="0.44" height="0.45"/><polygon class="cls-1" points="4.45 1.33 4.45 1.77 4.01 1.77 4.01 2.22 4.45 2.22 4.45 1.77 5.34 1.77 5.34 1.33 6.23 1.33 6.23 0.89 5.34 0.89 5.34 1.33 4.45 1.33"/><polygon class="cls-1" points="4.01 0.44 6.23 0.44 6.23 0.89 6.67 0.89 6.67 0.44 6.23 0.44 6.23 0 4.01 0 4.01 0.44 3.12 0.44 3.12 0.89 4.01 0.89 4.01 0.44"/><rect class="cls-1" x="2.67" y="0.89" width="0.44" height="0.45"/><rect class="cls-1" x="2.22" y="1.33" width="0.45" height="0.89"/><polygon class="cls-1" points="2.23 2.22 1.78 2.22 1.78 4.45 0.89 4.45 0.89 4.89 2.23 4.89 2.23 5.34 2.67 5.34 2.67 4.45 2.23 4.45 2.23 2.22"/></g></g></svg>