<svg xmlns="http://www.w3.org/2000/svg" viewBox="0 0 8.01 6.67"><defs><style>.cls-1{fill:#8ad0e4;}</style></defs><g id="Layer_2" data-name="Layer 2"><g id="Layer_1-2" data-name="Layer 1"><polygon class="cls-1" points="5.34 2.23 4.89 2.23 4.89 3.11 3.11 3.11 3.11 3.56 4.89 3.56 4.89 4 5.34 4 5.34 2.23"/><rect class="cls-1" x="2.67" y="4.89" width="0.44" height="0.45"/><rect class="cls-1" x="0.45" y="4.45" width="0.44" height="0.44"/><rect class="cls-1" x="0.45" y="5.78" width="0.44" height="0.44"/><rect class="cls-1" x="0.89" y="6.23" width="6.67" height="0.45"/><rect class="cls-1" y="4.89" width="0.45" height="0.89"/><polygon class="cls-1" points="0.89 4.45 2.23 4.45 2.23 4.89 2.67 4.89 2.67 4 0.89 4 0.89 4.45"/><rect class="cls-1" x="2.67" y="3.56" width="0.44" height="0.45"/><polygon class="cls-1" points="7.12 4.89 7.12 4.45 5.78 4.45 5.78 4 5.34 4 5.34 4.89 7.12 4.89 7.12 5.34 7.56 5.34 7.56 4.89 7.12 4.89"/><rect class="cls-1" x="7.56" y="5.34" width="0.45" height="0.89"/><rect class="cls-1" x="4.89" y="4.89" width="0.45" height="0.45"/><rect class="cls-1" x="3.56" width="0.45" height="0.89"/><rect class="cls-1" x="5.78" y="2.67" width="0.89" height="0.44"/><rect class="cls-1" x="0.89" y="2.67" width="0.89" height="0.44"/><rect class="cls-1" x="2.22" y="2.22" width="0.45" height="1.33"/><rect class="cls-1" x="3.11" y="1.33" width="1.33" height="0.45"/><rect class="cls-1" x="2.67" y="1.78" width="0.44" height="0.45"/><rect class="cls-1" x="4.45" y="1.78" width="0.45" height="0.45"/><rect class="cls-1" x="5.34" y="0.89" width="0.45" height="0.44"/><rect class="cls-1" x="5.78" y="0.45" width="0.45" height="0.45"/><rect class="cls-1" x="1.33" y="0.45" width="0.45" height="0.45"/><rect class="cls-1" x="1.78" y="0.89" width="0.45" height="0.44"/></g></g></svg>