<svg xmlns="http://www.w3.org/2000/svg" viewBox="0 0 8.9 5.34"><defs><style>.cls-1{fill:#6a6aaf;}</style></defs><g id="Layer_2" data-name="Layer 2"><g id="Layer_1-2" data-name="Layer 1"><rect class="cls-1" y="0.89" width="0.89" height="0.44"/><rect class="cls-1" x="1.34" width="0.89" height="0.45"/><rect class="cls-1" x="0.89" y="0.45" width="0.45" height="0.45"/><rect class="cls-1" x="2.22" y="0.45" width="0.45" height="0.45"/><rect class="cls-1" x="2.67" y="0.89" width="0.89" height="0.44"/><rect class="cls-1" x="4" width="0.89" height="0.45"/><rect class="cls-1" x="3.56" y="0.45" width="0.45" height="0.45"/><rect class="cls-1" x="4.89" y="0.45" width="0.45" height="0.45"/><rect class="cls-1" x="5.34" y="0.89" width="0.89" height="0.44"/><rect class="cls-1" x="6.67" width="0.89" height="0.45"/><rect class="cls-1" x="6.23" y="0.45" width="0.45" height="0.45"/><rect class="cls-1" x="7.56" y="0.45" width="0.45" height="0.45"/><rect class="cls-1" x="8.01" y="0.89" width="0.89" height="0.44"/><rect class="cls-1" y="2.22" width="0.89" height="0.45"/><rect class="cls-1" x="1.34" y="1.33" width="0.89" height="0.45"/><rect class="cls-1" x="0.89" y="1.78" width="0.45" height="0.45"/><rect class="cls-1" x="2.22" y="1.78" width="0.45" height="0.45"/><rect class="cls-1" x="2.67" y="2.22" width="0.89" height="0.45"/><rect class="cls-1" x="4" y="1.33" width="0.89" height="0.45"/><rect class="cls-1" x="3.56" y="1.78" width="0.45" height="0.45"/><rect class="cls-1" x="4.89" y="1.78" width="0.45" height="0.45"/><rect class="cls-1" x="5.34" y="2.22" width="0.89" height="0.45"/><rect class="cls-1" x="6.67" y="1.33" width="0.89" height="0.45"/><rect class="cls-1" x="6.23" y="1.78" width="0.45" height="0.45"/><rect class="cls-1" x="7.56" y="1.78" width="0.45" height="0.45"/><rect class="cls-1" x="8.01" y="2.22" width="0.89" height="0.45"/><rect class="cls-1" y="3.56" width="0.89" height="0.45"/><rect class="cls-1" x="1.34" y="2.67" width="0.89" height="0.45"/><rect class="cls-1" x="0.89" y="3.12" width="0.45" height="0.44"/><rect class="cls-1" x="2.22" y="3.12" width="0.45" height="0.44"/><rect class="cls-1" x="2.67" y="3.56" width="0.89" height="0.45"/><rect class="cls-1" x="4" y="2.67" width="0.89" height="0.45"/><rect class="cls-1" x="3.56" y="3.12" width="0.45" height="0.44"/><rect class="cls-1" x="4.89" y="3.12" width="0.45" height="0.44"/><rect class="cls-1" x="5.34" y="3.56" width="0.89" height="0.45"/><rect class="cls-1" x="6.67" y="2.67" width="0.89" height="0.45"/><rect class="cls-1" x="6.23" y="3.12" width="0.45" height="0.44"/><rect class="cls-1" x="7.56" y="3.12" width="0.45" height="0.44"/><rect class="cls-1" x="8.01" y="3.56" width="0.89" height="0.45"/><rect class="cls-1" y="4.89" width="0.89" height="0.45"/><rect class="cls-1" x="1.34" y="4" width="0.89" height="0.45"/><rect class="cls-1" x="0.89" y="4.45" width="0.45" height="0.44"/><rect class="cls-1" x="2.22" y="4.45" width="0.45" height="0.44"/><rect class="cls-1" x="2.67" y="4.89" width="0.89" height="0.45"/><rect class="cls-1" x="4" y="4" width="0.89" height="0.45"/><rect class="cls-1" x="3.56" y="4.45" width="0.45" height="0.44"/><rect class="cls-1" x="4.89" y="4.45" width="0.45" height="0.44"/><rect class="cls-1" x="5.34" y="4.89" width="0.89" height="0.45"/><rect class="cls-1" x="6.67" y="4" width="0.89" height="0.45"/><rect class="cls-1" x="6.23" y="4.45" width="0.45" height="0.44"/><rect class="cls-1" x="7.56" y="4.45" width="0.45" height="0.44"/><rect class="cls-1" x="8.01" y="4.89" width="0.89" height="0.45"/></g></g></svg>