<svg xmlns="http://www.w3.org/2000/svg" viewBox="0 0 5.78 8.01"><defs><style>.cls-1{fill:#b44b95;}</style></defs><g id="Layer_2" data-name="Layer 2"><g id="Layer_1-2" data-name="Layer 1"><polygon class="cls-1" points="3.11 0.89 3.11 0 2.67 0 2.67 0.89 2.22 0.89 2.22 1.78 2.67 1.78 2.67 0.89 3.11 0.89 3.11 1.78 3.56 1.78 3.56 0.89 3.11 0.89"/><rect class="cls-1" x="4" y="2.22" width="0.45" height="0.89"/><rect class="cls-1" x="3.11" y="2.22" width="0.45" height="0.89"/><rect class="cls-1" x="4.89" y="3.56" width="0.45" height="0.89"/><rect class="cls-1" x="1.78" y="7.56" width="2.22" height="0.44"/><rect class="cls-1" x="4.89" y="5.78" width="0.45" height="0.89"/><rect class="cls-1" x="5.34" y="4.45" width="0.44" height="1.34"/><rect class="cls-1" x="3.56" y="1.78" width="0.45" height="0.44"/><rect class="cls-1" x="4.45" y="3.11" width="0.44" height="0.45"/><rect class="cls-1" x="3.56" y="3.11" width="0.45" height="0.45"/><rect class="cls-1" x="4" y="4" width="0.45" height="0.44"/><rect class="cls-1" x="1.33" y="6.23" width="0.45" height="0.45"/><rect class="cls-1" x="4.45" y="6.67" width="0.44" height="0.45"/><rect class="cls-1" x="4" y="7.12" width="0.45" height="0.45"/><rect class="cls-1" x="1.33" y="2.22" width="0.45" height="0.89"/><rect class="cls-1" x="0.45" y="3.56" width="0.44" height="0.89"/><rect class="cls-1" x="0.45" y="5.78" width="0.44" height="0.89"/><rect class="cls-1" y="4.45" width="0.45" height="1.34"/><rect class="cls-1" x="1.78" y="1.78" width="0.44" height="0.44"/><rect class="cls-1" x="0.89" y="3.11" width="0.45" height="0.45"/><rect class="cls-1" x="0.89" y="6.67" width="0.45" height="0.45"/><rect class="cls-1" x="1.33" y="7.12" width="0.45" height="0.45"/></g></g></svg>