<svg xmlns="http://www.w3.org/2000/svg" viewBox="0 0 8.01 3.56"><defs><style>.cls-1{fill:#c0c0bf;}</style></defs><g id="Layer_2" data-name="Layer 2"><g id="Layer_1-2" data-name="Layer 1"><rect class="cls-1" x="3.11" width="1.78" height="0.45"/><rect class="cls-1" x="4.89" y="0.45" width="0.45" height="0.45"/><rect class="cls-1" x="2.67" y="1.78" width="0.45" height="0.45"/><rect class="cls-1" x="0.44" y="1.34" width="0.45" height="0.44"/><rect class="cls-1" x="0.44" y="2.67" width="0.45" height="0.45"/><rect class="cls-1" x="0.89" y="3.12" width="6.67" height="0.45"/><rect class="cls-1" y="1.78" width="0.44" height="0.89"/><polygon class="cls-1" points="0.89 0.89 0.89 1.34 2.23 1.34 2.23 1.78 2.67 1.78 2.67 0.89 0.89 0.89"/><rect class="cls-1" x="2.67" y="0.45" width="0.45" height="0.45"/><polygon class="cls-1" points="7.12 1.78 7.12 1.34 5.78 1.34 5.78 0.89 5.34 0.89 5.34 1.78 7.12 1.78 7.12 2.23 7.56 2.23 7.56 1.78 7.12 1.78"/><rect class="cls-1" x="7.56" y="2.22" width="0.45" height="0.89"/><rect class="cls-1" x="4.89" y="1.78" width="0.45" height="0.45"/></g></g></svg>