<svg xmlns="http://www.w3.org/2000/svg" viewBox="0 0 8.45 5.78"><defs><style>.cls-1{fill:#6a6aaf;}</style></defs><g id="Layer_2" data-name="Layer 2"><g id="Layer_1-2" data-name="Layer 1"><rect class="cls-1" x="3.56" width="1.78" height="0.44"/><rect class="cls-1" x="5.34" y="0.44" width="0.45" height="0.45"/><rect class="cls-1" x="3.11" y="1.78" width="0.45" height="0.44"/><rect class="cls-1" x="0.89" y="1.33" width="0.45" height="0.45"/><rect class="cls-1" x="0.89" y="2.67" width="0.45" height="0.45"/><rect class="cls-1" x="1.33" y="3.11" width="6.67" height="0.45"/><rect class="cls-1" x="0.45" y="1.78" width="0.44" height="0.89"/><polygon class="cls-1" points="1.33 1.33 2.67 1.33 2.67 1.78 3.11 1.78 3.11 0.89 1.33 0.89 1.33 1.33"/><rect class="cls-1" x="3.11" y="0.44" width="0.45" height="0.45"/><polygon class="cls-1" points="7.56 1.78 7.56 1.33 6.23 1.33 6.23 0.89 5.78 0.89 5.78 1.78 7.56 1.78 7.56 2.22 8.01 2.22 8.01 1.78 7.56 1.78"/><rect class="cls-1" x="8.01" y="2.22" width="0.44" height="0.89"/><rect class="cls-1" x="5.34" y="1.78" width="0.45" height="0.44"/><rect class="cls-1" x="1.33" y="4" width="0.45" height="0.45"/><rect class="cls-1" x="0.89" y="4.45" width="0.45" height="0.45"/><rect class="cls-1" x="2.89" y="4" width="0.45" height="0.45"/><rect class="cls-1" x="2.45" y="4.45" width="0.44" height="0.45"/><rect class="cls-1" x="4.45" y="4" width="0.45" height="0.45"/><rect class="cls-1" x="4" y="4.45" width="0.44" height="0.45"/><rect class="cls-1" x="6.01" y="4" width="0.44" height="0.45"/><rect class="cls-1" x="5.56" y="4.45" width="0.45" height="0.45"/><rect class="cls-1" x="7.56" y="4" width="0.45" height="0.45"/><rect class="cls-1" x="7.12" y="4.45" width="0.45" height="0.45"/><polygon class="cls-1" points="0.45 5.34 0 5.34 0 5.78 0.45 5.78 0.45 5.34 0.89 5.34 0.89 4.89 0.45 4.89 0.45 5.34"/><polygon class="cls-1" points="2 5.34 1.56 5.34 1.56 5.78 2 5.78 2 5.34 2.45 5.34 2.45 4.89 2 4.89 2 5.34"/><polygon class="cls-1" points="3.56 5.34 3.11 5.34 3.11 5.78 3.56 5.78 3.56 5.34 4 5.34 4 4.89 3.56 4.89 3.56 5.34"/><polygon class="cls-1" points="5.12 5.34 4.67 5.34 4.67 5.78 5.12 5.78 5.12 5.34 5.56 5.34 5.56 4.89 5.12 4.89 5.12 5.34"/><polygon class="cls-1" points="6.67 5.34 6.23 5.34 6.23 5.78 6.67 5.78 6.67 5.34 7.12 5.34 7.12 4.89 6.67 4.89 6.67 5.34"/></g></g></svg>