<?xml version="1.0" encoding="utf-8"?>
<!-- Generator: Adobe Illustrator 25.0.0, SVG Export Plug-In . SVG Version: 6.00 Build 0)  -->
<svg version="1.1" id="Layer_1" xmlns="http://www.w3.org/2000/svg" xmlns:xlink="http://www.w3.org/1999/xlink" x="0px" y="0px"
	 viewBox="0 0 7.1 6.7" style="enable-background:new 0 0 7.1 6.7;" xml:space="preserve">
<style type="text/css">
	.st0{fill:#C944BE;}
</style>
<g id="Layer_2_1_">
	<g id="Layer_1-2">
		<polygon class="st0" points="1.1,4 0.7,4 0.7,4.4 1.1,4.4 1.1,4.9 1.6,4.9 1.6,4.4 1.1,4.4 1.1,4 1.6,4 1.6,3.6 1.1,3.6 		"/>
		<rect x="0.2" y="3.6" class="st0" width="0.4" height="0.4"/>
		<rect x="0.2" y="4.4" class="st0" width="0.4" height="0.4"/>
		<polygon class="st0" points="2.5,5.8 2,5.8 2,6.2 2.5,6.2 2.5,6.7 2.9,6.7 2.9,6.2 2.5,6.2 2.5,5.8 2.9,5.8 2.9,5.3 2.5,5.3 		"/>
		<rect x="1.6" y="5.3" class="st0" width="0.4" height="0.4"/>
		<rect x="1.6" y="6.2" class="st0" width="0.4" height="0.4"/>
		<polygon class="st0" points="5.1,5.8 4.7,5.8 4.7,6.2 5.1,6.2 5.1,6.7 5.6,6.7 5.6,6.2 5.1,6.2 5.1,5.8 5.6,5.8 5.6,5.3 5.1,5.3 
					"/>
		<rect x="4.2" y="5.3" class="st0" width="0.4" height="0.4"/>
		<rect x="4.2" y="6.2" class="st0" width="0.4" height="0.4"/>
		<polygon class="st0" points="6.5,4 6,4 6,4.4 6.5,4.4 6.5,4.9 6.9,4.9 6.9,4.4 6.5,4.4 6.5,4 6.9,4 6.9,3.6 6.5,3.6 		"/>
		<rect x="5.6" y="3.6" class="st0" width="0.4" height="0.4"/>
		<rect x="5.6" y="4.4" class="st0" width="0.4" height="0.4"/>
		<polygon class="st0" points="4.2,4.9 4.2,4.4 3.8,4.4 3.8,4 4.2,4 4.2,3.6 3.8,3.6 3.8,4 3.3,4 3.3,4.4 3.8,4.4 3.8,4.9 		"/>
		<rect x="2.9" y="3.6" class="st0" width="0.4" height="0.4"/>
		<rect x="2.9" y="4.4" class="st0" width="0.4" height="0.4"/>
		<polygon class="st0" points="6.7,1.8 6.7,1.3 4.9,1.3 4.9,1.8 4.4,1.8 4.4,1.3 4.9,1.3 4.9,0.4 4.4,0.4 4.4,0 2.7,0 2.7,0.4 
			2.2,0.4 2.2,1.3 2.7,1.3 2.7,1.8 2.2,1.8 2.2,1.3 1.8,1.3 1.8,0.9 0.4,0.9 0.4,0.9 0.4,1.3 0,1.3 0,2.7 0.4,2.7 0.4,3.1 0.4,3.1 
			6.7,3.1 6.7,2.7 7.1,2.7 7.1,1.8 		"/>
	</g>
</g>
</svg>
