<svg xmlns="http://www.w3.org/2000/svg" viewBox="0 0 8.01 7.12"><defs><style>.cls-1{fill:#6a6aaf;}</style></defs><g id="Layer_2" data-name="Layer 2"><g id="Layer_1-2" data-name="Layer 1"><rect class="cls-1" x="3.11" width="1.78" height="0.44"/><rect class="cls-1" x="4.89" y="0.44" width="0.45" height="0.45"/><rect class="cls-1" x="2.67" y="1.78" width="0.44" height="0.45"/><rect class="cls-1" x="0.45" y="1.33" width="0.44" height="0.45"/><rect class="cls-1" x="0.45" y="2.67" width="0.44" height="0.45"/><rect class="cls-1" x="0.89" y="3.11" width="6.67" height="0.45"/><rect class="cls-1" y="1.78" width="0.45" height="0.89"/><polygon class="cls-1" points="0.89 1.33 2.22 1.33 2.22 1.78 2.67 1.78 2.67 0.89 0.89 0.89 0.89 1.33"/><rect class="cls-1" x="2.67" y="0.44" width="0.44" height="0.45"/><polygon class="cls-1" points="7.12 1.78 7.12 1.33 5.78 1.33 5.78 0.89 5.34 0.89 5.34 1.78 7.12 1.78 7.12 2.23 7.56 2.23 7.56 1.78 7.12 1.78"/><rect class="cls-1" x="7.56" y="2.22" width="0.44" height="0.89"/><rect class="cls-1" x="4.89" y="1.78" width="0.45" height="0.45"/><polygon class="cls-1" points="1.78 4.45 1.33 4.45 1.33 4.89 1.78 4.89 1.78 5.34 2.22 5.34 2.22 4.89 1.78 4.89 1.78 4.45 2.22 4.45 2.22 4 1.78 4 1.78 4.45"/><rect class="cls-1" x="0.89" y="4" width="0.45" height="0.44"/><rect class="cls-1" x="0.89" y="4.89" width="0.45" height="0.45"/><polygon class="cls-1" points="3.11 6.23 2.67 6.23 2.67 6.67 3.11 6.67 3.11 7.12 3.56 7.12 3.56 6.67 3.11 6.67 3.11 6.23 3.56 6.23 3.56 5.78 3.11 5.78 3.11 6.23"/><rect class="cls-1" x="2.22" y="5.78" width="0.45" height="0.45"/><rect class="cls-1" x="2.22" y="6.67" width="0.45" height="0.44"/><polygon class="cls-1" points="5.78 6.23 5.34 6.23 5.34 6.67 5.78 6.67 5.78 7.12 6.23 7.12 6.23 6.67 5.78 6.67 5.78 6.23 6.23 6.23 6.23 5.78 5.78 5.78 5.78 6.23"/><rect class="cls-1" x="4.89" y="5.78" width="0.45" height="0.45"/><rect class="cls-1" x="4.89" y="6.67" width="0.45" height="0.44"/><polygon class="cls-1" points="7.12 4.45 6.67 4.45 6.67 4.89 7.12 4.89 7.12 5.34 7.56 5.34 7.56 4.89 7.12 4.89 7.12 4.45 7.56 4.45 7.56 4 7.12 4 7.12 4.45"/><rect class="cls-1" x="6.23" y="4" width="0.45" height="0.44"/><rect class="cls-1" x="6.23" y="4.89" width="0.45" height="0.45"/><polygon class="cls-1" points="4.89 5.34 4.89 4.89 4.45 4.89 4.45 4.45 4.89 4.45 4.89 4 4.45 4 4.45 4.45 4 4.45 4 4.89 4.45 4.89 4.45 5.34 4.89 5.34"/><rect class="cls-1" x="3.56" y="4" width="0.45" height="0.44"/><rect class="cls-1" x="3.56" y="4.89" width="0.45" height="0.45"/></g></g></svg>