<svg xmlns="http://www.w3.org/2000/svg" viewBox="0 0 7.12 6.67"><defs><style>.cls-1{fill:#b44b95;}</style></defs><g id="Layer_2" data-name="Layer 2"><g id="Layer_1-2" data-name="Layer 1"><polygon class="cls-1" points="1.12 4 0.67 4 0.67 4.45 1.12 4.45 1.12 4.89 1.56 4.89 1.56 4.45 1.12 4.45 1.12 4 1.56 4 1.56 3.56 1.12 3.56 1.12 4"/><rect class="cls-1" x="0.23" y="3.56" width="0.44" height="0.45"/><rect class="cls-1" x="0.23" y="4.45" width="0.44" height="0.44"/><polygon class="cls-1" points="2.46 5.78 2.01 5.78 2.01 6.23 2.46 6.23 2.46 6.67 2.9 6.67 2.9 6.23 2.46 6.23 2.46 5.78 2.9 5.78 2.9 5.34 2.46 5.34 2.46 5.78"/><rect class="cls-1" x="1.56" y="5.34" width="0.44" height="0.45"/><rect class="cls-1" x="1.56" y="6.23" width="0.44" height="0.44"/><polygon class="cls-1" points="5.12 5.78 4.68 5.78 4.68 6.23 5.12 6.23 5.12 6.67 5.57 6.67 5.57 6.23 5.12 6.23 5.12 5.78 5.57 5.78 5.57 5.34 5.12 5.34 5.12 5.78"/><rect class="cls-1" x="4.23" y="5.34" width="0.45" height="0.45"/><rect class="cls-1" x="4.23" y="6.23" width="0.45" height="0.44"/><polygon class="cls-1" points="6.46 4 6.01 4 6.01 4.45 6.46 4.45 6.46 4.89 6.9 4.89 6.9 4.45 6.46 4.45 6.46 4 6.9 4 6.9 3.56 6.46 3.56 6.46 4"/><rect class="cls-1" x="5.57" y="3.56" width="0.45" height="0.45"/><rect class="cls-1" x="5.57" y="4.45" width="0.45" height="0.44"/><polygon class="cls-1" points="4.23 4.89 4.23 4.45 3.79 4.45 3.79 4 4.23 4 4.23 3.56 3.79 3.56 3.79 4 3.34 4 3.34 4.45 3.79 4.45 3.79 4.89 4.23 4.89"/><rect class="cls-1" x="2.9" y="3.56" width="0.44" height="0.45"/><rect class="cls-1" x="2.9" y="4.45" width="0.44" height="0.44"/><polygon class="cls-1" points="6.67 1.78 6.67 1.33 4.89 1.33 4.89 1.78 4.45 1.78 4.45 1.33 4.89 1.33 4.89 0.45 4.45 0.45 4.45 0 2.67 0 2.67 0.45 2.22 0.45 2.22 1.33 2.67 1.33 2.67 1.78 2.22 1.78 2.22 1.33 1.78 1.33 1.78 0.89 0.44 0.89 0.44 0.89 0.44 1.33 0 1.33 0 2.67 0.44 2.67 0.44 3.11 0.44 3.11 6.67 3.11 6.67 2.67 7.12 2.67 7.12 1.78 6.67 1.78"/></g></g></svg>