<svg xmlns="http://www.w3.org/2000/svg" viewBox="0 0 7.12 8.89"><defs><style>.cls-1{fill:#a7519a;}</style></defs><g id="Layer_2" data-name="Layer 2"><g id="Layer_1-2" data-name="Layer 1"><rect class="cls-1" x="3.56" y="3.56" width="0.45" height="0.89"/><rect class="cls-1" x="3.11" y="4.45" width="0.45" height="0.89"/><polygon class="cls-1" points="3.11 5.34 2.67 5.34 2.67 6.23 3.56 6.23 3.56 7.12 4 7.12 4 5.78 3.11 5.78 3.11 5.34"/><rect class="cls-1" x="3.11" y="7.12" width="0.45" height="0.89"/><rect class="cls-1" x="2.67" y="8" width="0.44" height="0.89"/><polygon class="cls-1" points="6.67 1.78 6.67 1.33 4.89 1.33 4.89 1.78 4.45 1.78 4.45 1.33 4.89 1.33 4.89 0.45 4.45 0.45 4.45 0 2.67 0 2.67 0.45 2.23 0.45 2.23 1.33 2.67 1.33 2.67 1.78 2.23 1.78 2.23 1.33 1.78 1.33 1.78 0.89 0.45 0.89 0.45 0.89 0.45 1.33 0 1.33 0 2.67 0.45 2.67 0.45 3.12 0.45 3.12 6.67 3.12 6.67 2.67 7.12 2.67 7.12 1.78 6.67 1.78"/></g></g></svg>